<?xml version="1.0" standalone="no"?>
 <!DOCTYPE svg PUBLIC "-//W3C//DTD SVG 1.1//EN" 
 "http://www.w3.org/Graphics/SVG/1.1/DTD/svg11.dtd"> 
<svg
  xmlns:svg="http://www.w3.org/2000/svg"
  xmlns="http://www.w3.org/2000/svg"
  xmlns:xlink="http://www.w3.org/1999/xlink"
  version="1.1"
  width="52.5272mm" height="70.0786mm" viewBox="0.0000 0.0000 52.5272 70.0786">
<title>SVG Image created as NanoRC-F_Silkscreen.svg date 2023/04/07 20:15:35 </title>
  <desc>Image generated by PCBNEW </desc>
<g style="fill:#000000; fill-opacity:1.0000;stroke:#000000; stroke-opacity:1.0000;
stroke-linecap:round; stroke-linejoin:round;"
 transform="translate(0 0) scale(1 1)">
</g>
<g style="fill:#000000; fill-opacity:0.0; 
stroke:#000000; stroke-width:0.0000; stroke-opacity:1; 
stroke-linecap:round; stroke-linejoin:round;">
</g>
<g style="fill:#000000; fill-opacity:0.0; 
stroke:#000000; stroke-width:0.1500; stroke-opacity:1; 
stroke-linecap:round; stroke-linejoin:round;">
<text x="46.3207" y="11.2560"
textLength="2.9845" font-size="1.3333" lengthAdjust="spacingAndGlyphs"
text-anchor="middle" opacity="0">RF1</text>
<g class="stroked-text"><desc>RF1</desc>
<path d="M46.9159 11.1234
L47.2492 10.6472
" />
<path d="M47.4873 11.1234
L47.4873 10.1234
" />
<path d="M47.4873 10.1234
L47.1064 10.1234
" />
<path d="M47.1064 10.1234
L47.0111 10.1710
" />
<path d="M47.0111 10.1710
L46.9635 10.2186
" />
<path d="M46.9635 10.2186
L46.9159 10.3139
" />
<path d="M46.9159 10.3139
L46.9159 10.4567
" />
<path d="M46.9159 10.4567
L46.9635 10.5520
" />
<path d="M46.9635 10.5520
L47.0111 10.5996
" />
<path d="M47.0111 10.5996
L47.1064 10.6472
" />
<path d="M47.1064 10.6472
L47.4873 10.6472
" />
<path d="M46.1540 10.5996
L46.4873 10.5996
" />
<path d="M46.4873 11.1234
L46.4873 10.1234
" />
<path d="M46.4873 10.1234
L46.0111 10.1234
" />
<path d="M45.1064 11.1234
L45.6778 11.1234
" />
<path d="M45.3921 11.1234
L45.3921 10.1234
" />
<path d="M45.3921 10.1234
L45.4873 10.2662
" />
<path d="M45.4873 10.2662
L45.5826 10.3615
" />
<path d="M45.5826 10.3615
L45.6778 10.4091
" />
</g><text x="15.9487" y="26.0000"
textLength="4.6988" font-size="1.3333" lengthAdjust="spacingAndGlyphs"
text-anchor="middle" opacity="0">SRV_2</text>
<g class="stroked-text"><desc>SRV_2</desc>
<path d="M18.0201 25.8198
L17.8772 25.8674
" />
<path d="M17.8772 25.8674
L17.6391 25.8674
" />
<path d="M17.6391 25.8674
L17.5439 25.8198
" />
<path d="M17.5439 25.8198
L17.4963 25.7721
" />
<path d="M17.4963 25.7721
L17.4487 25.6769
" />
<path d="M17.4487 25.6769
L17.4487 25.5817
" />
<path d="M17.4487 25.5817
L17.4963 25.4864
" />
<path d="M17.4963 25.4864
L17.5439 25.4388
" />
<path d="M17.5439 25.4388
L17.6391 25.3912
" />
<path d="M17.6391 25.3912
L17.8296 25.3436
" />
<path d="M17.8296 25.3436
L17.9248 25.2960
" />
<path d="M17.9248 25.2960
L17.9725 25.2483
" />
<path d="M17.9725 25.2483
L18.0201 25.1531
" />
<path d="M18.0201 25.1531
L18.0201 25.0579
" />
<path d="M18.0201 25.0579
L17.9725 24.9626
" />
<path d="M17.9725 24.9626
L17.9248 24.9150
" />
<path d="M17.9248 24.9150
L17.8296 24.8674
" />
<path d="M17.8296 24.8674
L17.5915 24.8674
" />
<path d="M17.5915 24.8674
L17.4487 24.9150
" />
<path d="M16.4487 25.8674
L16.7820 25.3912
" />
<path d="M17.0201 25.8674
L17.0201 24.8674
" />
<path d="M17.0201 24.8674
L16.6391 24.8674
" />
<path d="M16.6391 24.8674
L16.5439 24.9150
" />
<path d="M16.5439 24.9150
L16.4963 24.9626
" />
<path d="M16.4963 24.9626
L16.4487 25.0579
" />
<path d="M16.4487 25.0579
L16.4487 25.2007
" />
<path d="M16.4487 25.2007
L16.4963 25.2960
" />
<path d="M16.4963 25.2960
L16.5439 25.3436
" />
<path d="M16.5439 25.3436
L16.6391 25.3912
" />
<path d="M16.6391 25.3912
L17.0201 25.3912
" />
<path d="M16.1629 24.8674
L15.8296 25.8674
" />
<path d="M15.8296 25.8674
L15.4963 24.8674
" />
<path d="M15.4010 25.9626
L14.6391 25.9626
" />
<path d="M14.4487 24.9626
L14.4010 24.9150
" />
<path d="M14.4010 24.9150
L14.3058 24.8674
" />
<path d="M14.3058 24.8674
L14.0677 24.8674
" />
<path d="M14.0677 24.8674
L13.9725 24.9150
" />
<path d="M13.9725 24.9150
L13.9248 24.9626
" />
<path d="M13.9248 24.9626
L13.8772 25.0579
" />
<path d="M13.8772 25.0579
L13.8772 25.1531
" />
<path d="M13.8772 25.1531
L13.9248 25.2960
" />
<path d="M13.9248 25.2960
L14.4963 25.8674
" />
<path d="M14.4963 25.8674
L13.8772 25.8674
" />
</g><text x="46.3207" y="22.3980"
textLength="2.6036" font-size="1.3333" lengthAdjust="spacingAndGlyphs"
text-anchor="middle" opacity="0">I2C</text>
<g class="stroked-text"><desc>I2C</desc>
<path d="M47.2968 22.2654
L47.2968 21.2654
" />
<path d="M46.8683 21.3606
L46.8207 21.3130
" />
<path d="M46.8207 21.3130
L46.7254 21.2654
" />
<path d="M46.7254 21.2654
L46.4873 21.2654
" />
<path d="M46.4873 21.2654
L46.3921 21.3130
" />
<path d="M46.3921 21.3130
L46.3445 21.3606
" />
<path d="M46.3445 21.3606
L46.2968 21.4559
" />
<path d="M46.2968 21.4559
L46.2968 21.5511
" />
<path d="M46.2968 21.5511
L46.3445 21.6940
" />
<path d="M46.3445 21.6940
L46.9159 22.2654
" />
<path d="M46.9159 22.2654
L46.2968 22.2654
" />
<path d="M45.2968 22.1701
L45.3445 22.2178
" />
<path d="M45.3445 22.2178
L45.4873 22.2654
" />
<path d="M45.4873 22.2654
L45.5826 22.2654
" />
<path d="M45.5826 22.2654
L45.7254 22.2178
" />
<path d="M45.7254 22.2178
L45.8207 22.1225
" />
<path d="M45.8207 22.1225
L45.8683 22.0273
" />
<path d="M45.8683 22.0273
L45.9159 21.8368
" />
<path d="M45.9159 21.8368
L45.9159 21.6940
" />
<path d="M45.9159 21.6940
L45.8683 21.5035
" />
<path d="M45.8683 21.5035
L45.8207 21.4082
" />
<path d="M45.8207 21.4082
L45.7254 21.3130
" />
<path d="M45.7254 21.3130
L45.5826 21.2654
" />
<path d="M45.5826 21.2654
L45.4873 21.2654
" />
<path d="M45.4873 21.2654
L45.3445 21.3130
" />
<path d="M45.3445 21.3130
L45.2968 21.3606
" />
</g><text x="15.9487" y="37.0000"
textLength="4.6988" font-size="1.3333" lengthAdjust="spacingAndGlyphs"
text-anchor="middle" opacity="0">SRV_3</text>
<g class="stroked-text"><desc>SRV_3</desc>
<path d="M18.0201 36.8198
L17.8772 36.8674
" />
<path d="M17.8772 36.8674
L17.6391 36.8674
" />
<path d="M17.6391 36.8674
L17.5439 36.8198
" />
<path d="M17.5439 36.8198
L17.4963 36.7721
" />
<path d="M17.4963 36.7721
L17.4487 36.6769
" />
<path d="M17.4487 36.6769
L17.4487 36.5817
" />
<path d="M17.4487 36.5817
L17.4963 36.4864
" />
<path d="M17.4963 36.4864
L17.5439 36.4388
" />
<path d="M17.5439 36.4388
L17.6391 36.3912
" />
<path d="M17.6391 36.3912
L17.8296 36.3436
" />
<path d="M17.8296 36.3436
L17.9248 36.2960
" />
<path d="M17.9248 36.2960
L17.9725 36.2483
" />
<path d="M17.9725 36.2483
L18.0201 36.1531
" />
<path d="M18.0201 36.1531
L18.0201 36.0579
" />
<path d="M18.0201 36.0579
L17.9725 35.9626
" />
<path d="M17.9725 35.9626
L17.9248 35.9150
" />
<path d="M17.9248 35.9150
L17.8296 35.8674
" />
<path d="M17.8296 35.8674
L17.5915 35.8674
" />
<path d="M17.5915 35.8674
L17.4487 35.9150
" />
<path d="M16.4487 36.8674
L16.7820 36.3912
" />
<path d="M17.0201 36.8674
L17.0201 35.8674
" />
<path d="M17.0201 35.8674
L16.6391 35.8674
" />
<path d="M16.6391 35.8674
L16.5439 35.9150
" />
<path d="M16.5439 35.9150
L16.4963 35.9626
" />
<path d="M16.4963 35.9626
L16.4487 36.0579
" />
<path d="M16.4487 36.0579
L16.4487 36.2007
" />
<path d="M16.4487 36.2007
L16.4963 36.2960
" />
<path d="M16.4963 36.2960
L16.5439 36.3436
" />
<path d="M16.5439 36.3436
L16.6391 36.3912
" />
<path d="M16.6391 36.3912
L17.0201 36.3912
" />
<path d="M16.1629 35.8674
L15.8296 36.8674
" />
<path d="M15.8296 36.8674
L15.4963 35.8674
" />
<path d="M15.4010 36.9626
L14.6391 36.9626
" />
<path d="M14.4963 35.8674
L13.8772 35.8674
" />
<path d="M13.8772 35.8674
L14.2106 36.2483
" />
<path d="M14.2106 36.2483
L14.0677 36.2483
" />
<path d="M14.0677 36.2483
L13.9725 36.2960
" />
<path d="M13.9725 36.2960
L13.9248 36.3436
" />
<path d="M13.9248 36.3436
L13.8772 36.4388
" />
<path d="M13.8772 36.4388
L13.8772 36.6769
" />
<path d="M13.8772 36.6769
L13.9248 36.7721
" />
<path d="M13.9248 36.7721
L13.9725 36.8198
" />
<path d="M13.9725 36.8198
L14.0677 36.8674
" />
<path d="M14.0677 36.8674
L14.3534 36.8674
" />
<path d="M14.3534 36.8674
L14.4487 36.8198
" />
<path d="M14.4487 36.8198
L14.4963 36.7721
" />
</g><text x="6.1887" y="13.6800"
textLength="6.7464" font-size="1.3333" lengthAdjust="spacingAndGlyphs"
text-anchor="middle" opacity="0">MOT_DRV</text>
<g class="stroked-text"><desc>MOT_DRV</desc>
<path d="M9.2363 13.5474
L9.2363 12.5474
" />
<path d="M9.2363 12.5474
L8.9029 13.2617
" />
<path d="M8.9029 13.2617
L8.5696 12.5474
" />
<path d="M8.5696 12.5474
L8.5696 13.5474
" />
<path d="M7.9029 12.5474
L7.7125 12.5474
" />
<path d="M7.7125 12.5474
L7.6172 12.5950
" />
<path d="M7.6172 12.5950
L7.5220 12.6902
" />
<path d="M7.5220 12.6902
L7.4744 12.8807
" />
<path d="M7.4744 12.8807
L7.4744 13.2140
" />
<path d="M7.4744 13.2140
L7.5220 13.4045
" />
<path d="M7.5220 13.4045
L7.6172 13.4998
" />
<path d="M7.6172 13.4998
L7.7125 13.5474
" />
<path d="M7.7125 13.5474
L7.9029 13.5474
" />
<path d="M7.9029 13.5474
L7.9982 13.4998
" />
<path d="M7.9982 13.4998
L8.0934 13.4045
" />
<path d="M8.0934 13.4045
L8.1410 13.2140
" />
<path d="M8.1410 13.2140
L8.1410 12.8807
" />
<path d="M8.1410 12.8807
L8.0934 12.6902
" />
<path d="M8.0934 12.6902
L7.9982 12.5950
" />
<path d="M7.9982 12.5950
L7.9029 12.5474
" />
<path d="M7.1887 12.5474
L6.6172 12.5474
" />
<path d="M6.9029 13.5474
L6.9029 12.5474
" />
<path d="M6.5220 13.6426
L5.7601 13.6426
" />
<path d="M5.5220 13.5474
L5.5220 12.5474
" />
<path d="M5.5220 12.5474
L5.2839 12.5474
" />
<path d="M5.2839 12.5474
L5.1410 12.5950
" />
<path d="M5.1410 12.5950
L5.0458 12.6902
" />
<path d="M5.0458 12.6902
L4.9982 12.7855
" />
<path d="M4.9982 12.7855
L4.9506 12.9760
" />
<path d="M4.9506 12.9760
L4.9506 13.1188
" />
<path d="M4.9506 13.1188
L4.9982 13.3093
" />
<path d="M4.9982 13.3093
L5.0458 13.4045
" />
<path d="M5.0458 13.4045
L5.1410 13.4998
" />
<path d="M5.1410 13.4998
L5.2839 13.5474
" />
<path d="M5.2839 13.5474
L5.5220 13.5474
" />
<path d="M3.9506 13.5474
L4.2839 13.0712
" />
<path d="M4.5220 13.5474
L4.5220 12.5474
" />
<path d="M4.5220 12.5474
L4.1410 12.5474
" />
<path d="M4.1410 12.5474
L4.0458 12.5950
" />
<path d="M4.0458 12.5950
L3.9982 12.6426
" />
<path d="M3.9982 12.6426
L3.9506 12.7379
" />
<path d="M3.9506 12.7379
L3.9506 12.8807
" />
<path d="M3.9506 12.8807
L3.9982 12.9760
" />
<path d="M3.9982 12.9760
L4.0458 13.0236
" />
<path d="M4.0458 13.0236
L4.1410 13.0712
" />
<path d="M4.1410 13.0712
L4.5220 13.0712
" />
<path d="M3.6648 12.5474
L3.3315 13.5474
" />
<path d="M3.3315 13.5474
L2.9982 12.5474
" />
</g><text x="32.9487" y="50.0000"
textLength="2.7464" font-size="1.3333" lengthAdjust="spacingAndGlyphs"
text-anchor="middle" opacity="0">A_2</text>
<g class="stroked-text"><desc>A_2</desc>
<path d="M34.0439 49.5817
L33.5677 49.5817
" />
<path d="M34.1391 49.8674
L33.8058 48.8674
" />
<path d="M33.8058 48.8674
L33.4725 49.8674
" />
<path d="M33.3772 49.9626
L32.6153 49.9626
" />
<path d="M32.4248 48.9626
L32.3772 48.9150
" />
<path d="M32.3772 48.9150
L32.2820 48.8674
" />
<path d="M32.2820 48.8674
L32.0439 48.8674
" />
<path d="M32.0439 48.8674
L31.9487 48.9150
" />
<path d="M31.9487 48.9150
L31.9010 48.9626
" />
<path d="M31.9010 48.9626
L31.8534 49.0579
" />
<path d="M31.8534 49.0579
L31.8534 49.1531
" />
<path d="M31.8534 49.1531
L31.9010 49.2960
" />
<path d="M31.9010 49.2960
L32.4725 49.8674
" />
<path d="M32.4725 49.8674
L31.8534 49.8674
" />
</g><text x="19.9487" y="50.0000"
textLength="2.7464" font-size="1.3333" lengthAdjust="spacingAndGlyphs"
text-anchor="middle" opacity="0">A_3</text>
<g class="stroked-text"><desc>A_3</desc>
<path d="M21.0439 49.5817
L20.5677 49.5817
" />
<path d="M21.1391 49.8674
L20.8058 48.8674
" />
<path d="M20.8058 48.8674
L20.4725 49.8674
" />
<path d="M20.3772 49.9626
L19.6153 49.9626
" />
<path d="M19.4725 48.8674
L18.8534 48.8674
" />
<path d="M18.8534 48.8674
L19.1867 49.2483
" />
<path d="M19.1867 49.2483
L19.0439 49.2483
" />
<path d="M19.0439 49.2483
L18.9487 49.2960
" />
<path d="M18.9487 49.2960
L18.9010 49.3436
" />
<path d="M18.9010 49.3436
L18.8534 49.4388
" />
<path d="M18.8534 49.4388
L18.8534 49.6769
" />
<path d="M18.8534 49.6769
L18.9010 49.7721
" />
<path d="M18.9010 49.7721
L18.9487 49.8198
" />
<path d="M18.9487 49.8198
L19.0439 49.8674
" />
<path d="M19.0439 49.8674
L19.3296 49.8674
" />
<path d="M19.3296 49.8674
L19.4248 49.8198
" />
<path d="M19.4248 49.8198
L19.4725 49.7721
" />
</g><g transform="rotate(-90.000000 48.9987 54.1500)">
<text x="48.9987" y="54.6500"
textLength="2.7464" font-size="1.3333" lengthAdjust="spacingAndGlyphs"
text-anchor="middle" opacity="0">A_1</text>
</g>
<g class="stroked-text"><desc>A_1</desc>
<path d="M48.9170 55.2452
L48.9170 54.7690
" />
<path d="M48.6313 55.3405
L49.6313 55.0071
" />
<path d="M49.6313 55.0071
L48.6313 54.6738
" />
<path d="M48.5360 54.5786
L48.5360 53.8167
" />
<path d="M48.6313 53.0548
L48.6313 53.6262
" />
<path d="M48.6313 53.3405
L49.6313 53.3405
" />
<path d="M49.6313 53.3405
L49.4884 53.4357
" />
<path d="M49.4884 53.4357
L49.3932 53.5310
" />
<path d="M49.3932 53.5310
L49.3456 53.6262
" />
</g><text x="46.1937" y="35.8600"
textLength="4.6988" font-size="1.3333" lengthAdjust="spacingAndGlyphs"
text-anchor="middle" opacity="0">MOT_L</text>
<g class="stroked-text"><desc>MOT_L</desc>
<path d="M48.2175 35.7274
L48.2175 34.7274
" />
<path d="M48.2175 34.7274
L47.8841 35.4417
" />
<path d="M47.8841 35.4417
L47.5508 34.7274
" />
<path d="M47.5508 34.7274
L47.5508 35.7274
" />
<path d="M46.8841 34.7274
L46.6937 34.7274
" />
<path d="M46.6937 34.7274
L46.5984 34.7750
" />
<path d="M46.5984 34.7750
L46.5032 34.8702
" />
<path d="M46.5032 34.8702
L46.4556 35.0607
" />
<path d="M46.4556 35.0607
L46.4556 35.3940
" />
<path d="M46.4556 35.3940
L46.5032 35.5845
" />
<path d="M46.5032 35.5845
L46.5984 35.6798
" />
<path d="M46.5984 35.6798
L46.6937 35.7274
" />
<path d="M46.6937 35.7274
L46.8841 35.7274
" />
<path d="M46.8841 35.7274
L46.9794 35.6798
" />
<path d="M46.9794 35.6798
L47.0746 35.5845
" />
<path d="M47.0746 35.5845
L47.1222 35.3940
" />
<path d="M47.1222 35.3940
L47.1222 35.0607
" />
<path d="M47.1222 35.0607
L47.0746 34.8702
" />
<path d="M47.0746 34.8702
L46.9794 34.7750
" />
<path d="M46.9794 34.7750
L46.8841 34.7274
" />
<path d="M46.1698 34.7274
L45.5984 34.7274
" />
<path d="M45.8841 35.7274
L45.8841 34.7274
" />
<path d="M45.5032 35.8226
L44.7413 35.8226
" />
<path d="M44.0270 35.7274
L44.5032 35.7274
" />
<path d="M44.5032 35.7274
L44.5032 34.7274
" />
</g><text x="15.9487" y="15.0000"
textLength="4.6988" font-size="1.3333" lengthAdjust="spacingAndGlyphs"
text-anchor="middle" opacity="0">SRV_1</text>
<g class="stroked-text"><desc>SRV_1</desc>
<path d="M18.0201 14.8198
L17.8772 14.8674
" />
<path d="M17.8772 14.8674
L17.6391 14.8674
" />
<path d="M17.6391 14.8674
L17.5439 14.8198
" />
<path d="M17.5439 14.8198
L17.4963 14.7721
" />
<path d="M17.4963 14.7721
L17.4487 14.6769
" />
<path d="M17.4487 14.6769
L17.4487 14.5817
" />
<path d="M17.4487 14.5817
L17.4963 14.4864
" />
<path d="M17.4963 14.4864
L17.5439 14.4388
" />
<path d="M17.5439 14.4388
L17.6391 14.3912
" />
<path d="M17.6391 14.3912
L17.8296 14.3436
" />
<path d="M17.8296 14.3436
L17.9248 14.2960
" />
<path d="M17.9248 14.2960
L17.9725 14.2483
" />
<path d="M17.9725 14.2483
L18.0201 14.1531
" />
<path d="M18.0201 14.1531
L18.0201 14.0579
" />
<path d="M18.0201 14.0579
L17.9725 13.9626
" />
<path d="M17.9725 13.9626
L17.9248 13.9150
" />
<path d="M17.9248 13.9150
L17.8296 13.8674
" />
<path d="M17.8296 13.8674
L17.5915 13.8674
" />
<path d="M17.5915 13.8674
L17.4487 13.9150
" />
<path d="M16.4487 14.8674
L16.7820 14.3912
" />
<path d="M17.0201 14.8674
L17.0201 13.8674
" />
<path d="M17.0201 13.8674
L16.6391 13.8674
" />
<path d="M16.6391 13.8674
L16.5439 13.9150
" />
<path d="M16.5439 13.9150
L16.4963 13.9626
" />
<path d="M16.4963 13.9626
L16.4487 14.0579
" />
<path d="M16.4487 14.0579
L16.4487 14.2007
" />
<path d="M16.4487 14.2007
L16.4963 14.2960
" />
<path d="M16.4963 14.2960
L16.5439 14.3436
" />
<path d="M16.5439 14.3436
L16.6391 14.3912
" />
<path d="M16.6391 14.3912
L17.0201 14.3912
" />
<path d="M16.1629 13.8674
L15.8296 14.8674
" />
<path d="M15.8296 14.8674
L15.4963 13.8674
" />
<path d="M15.4010 14.9626
L14.6391 14.9626
" />
<path d="M13.8772 14.8674
L14.4487 14.8674
" />
<path d="M14.1629 14.8674
L14.1629 13.8674
" />
<path d="M14.1629 13.8674
L14.2582 14.0102
" />
<path d="M14.2582 14.0102
L14.3534 14.1055
" />
<path d="M14.3534 14.1055
L14.4487 14.1531
" />
</g><text x="19.9487" y="60.0000"
textLength="2.7464" font-size="1.3333" lengthAdjust="spacingAndGlyphs"
text-anchor="middle" opacity="0">A_5</text>
<g class="stroked-text"><desc>A_5</desc>
<path d="M21.0439 59.5817
L20.5677 59.5817
" />
<path d="M21.1391 59.8674
L20.8058 58.8674
" />
<path d="M20.8058 58.8674
L20.4725 59.8674
" />
<path d="M20.3772 59.9626
L19.6153 59.9626
" />
<path d="M18.9010 58.8674
L19.3772 58.8674
" />
<path d="M19.3772 58.8674
L19.4248 59.3436
" />
<path d="M19.4248 59.3436
L19.3772 59.2960
" />
<path d="M19.3772 59.2960
L19.2820 59.2483
" />
<path d="M19.2820 59.2483
L19.0439 59.2483
" />
<path d="M19.0439 59.2483
L18.9487 59.2960
" />
<path d="M18.9487 59.2960
L18.9010 59.3436
" />
<path d="M18.9010 59.3436
L18.8534 59.4388
" />
<path d="M18.8534 59.4388
L18.8534 59.6769
" />
<path d="M18.8534 59.6769
L18.9010 59.7721
" />
<path d="M18.9010 59.7721
L18.9487 59.8198
" />
<path d="M18.9487 59.8198
L19.0439 59.8674
" />
<path d="M19.0439 59.8674
L19.2820 59.8674
" />
<path d="M19.2820 59.8674
L19.3772 59.8198
" />
<path d="M19.3772 59.8198
L19.4248 59.7721
" />
</g><text x="32.9487" y="60.0000"
textLength="2.7464" font-size="1.3333" lengthAdjust="spacingAndGlyphs"
text-anchor="middle" opacity="0">A_4</text>
<g class="stroked-text"><desc>A_4</desc>
<path d="M34.0439 59.5817
L33.5677 59.5817
" />
<path d="M34.1391 59.8674
L33.8058 58.8674
" />
<path d="M33.8058 58.8674
L33.4725 59.8674
" />
<path d="M33.3772 59.9626
L32.6153 59.9626
" />
<path d="M31.9487 59.2007
L31.9487 59.8674
" />
<path d="M32.1867 58.8198
L32.4248 59.5340
" />
<path d="M32.4248 59.5340
L31.8058 59.5340
" />
</g><text x="6.1887" y="33.6800"
textLength="4.8893" font-size="1.3333" lengthAdjust="spacingAndGlyphs"
text-anchor="middle" opacity="0">MOT_R</text>
<g class="stroked-text"><desc>MOT_R</desc>
<path d="M8.3077 33.5474
L8.3077 32.5474
" />
<path d="M8.3077 32.5474
L7.9744 33.2617
" />
<path d="M7.9744 33.2617
L7.6410 32.5474
" />
<path d="M7.6410 32.5474
L7.6410 33.5474
" />
<path d="M6.9744 32.5474
L6.7839 32.5474
" />
<path d="M6.7839 32.5474
L6.6887 32.5950
" />
<path d="M6.6887 32.5950
L6.5934 32.6902
" />
<path d="M6.5934 32.6902
L6.5458 32.8807
" />
<path d="M6.5458 32.8807
L6.5458 33.2140
" />
<path d="M6.5458 33.2140
L6.5934 33.4045
" />
<path d="M6.5934 33.4045
L6.6887 33.4998
" />
<path d="M6.6887 33.4998
L6.7839 33.5474
" />
<path d="M6.7839 33.5474
L6.9744 33.5474
" />
<path d="M6.9744 33.5474
L7.0696 33.4998
" />
<path d="M7.0696 33.4998
L7.1648 33.4045
" />
<path d="M7.1648 33.4045
L7.2125 33.2140
" />
<path d="M7.2125 33.2140
L7.2125 32.8807
" />
<path d="M7.2125 32.8807
L7.1648 32.6902
" />
<path d="M7.1648 32.6902
L7.0696 32.5950
" />
<path d="M7.0696 32.5950
L6.9744 32.5474
" />
<path d="M6.2601 32.5474
L5.6887 32.5474
" />
<path d="M5.9744 33.5474
L5.9744 32.5474
" />
<path d="M5.5934 33.6426
L4.8315 33.6426
" />
<path d="M4.0220 33.5474
L4.3553 33.0712
" />
<path d="M4.5934 33.5474
L4.5934 32.5474
" />
<path d="M4.5934 32.5474
L4.2125 32.5474
" />
<path d="M4.2125 32.5474
L4.1172 32.5950
" />
<path d="M4.1172 32.5950
L4.0696 32.6426
" />
<path d="M4.0696 32.6426
L4.0220 32.7379
" />
<path d="M4.0220 32.7379
L4.0220 32.8807
" />
<path d="M4.0220 32.8807
L4.0696 32.9760
" />
<path d="M4.0696 32.9760
L4.1172 33.0236
" />
<path d="M4.1172 33.0236
L4.2125 33.0712
" />
<path d="M4.2125 33.0712
L4.5934 33.0712
" />
</g></g>
<g style="fill:#000000; fill-opacity:0.0; 
stroke:#000000; stroke-width:0.1200; stroke-opacity:1; 
stroke-linecap:round; stroke-linejoin:round;">
<path d="M44.9907 11.9660
L47.6507 11.9660
" />
<path d="M44.9907 17.1060
L44.9907 11.9660
" />
<path d="M44.9907 18.3760
L44.9907 19.7060
" />
<path d="M47.6507 17.1060
L47.6507 11.9660
" />
<path d="M44.9907 19.7060
L46.3207 19.7060
" />
<path d="M44.9907 17.1060
L47.6507 17.1060
" />
<path d="M21.2987 26.3000
L21.2987 27.5500
" />
<path d="M21.0087 26.5900
L21.0087 32.5600
" />
<path d="M21.0087 32.5600
L10.8887 32.5600
" />
<path d="M20.9987 26.6000
L20.9987 27.3500
" />
<path d="M20.9987 27.3500
L19.1987 27.3500
" />
<path d="M20.9987 28.8500
L20.2487 28.8500
" />
<path d="M20.2487 28.8500
L20.2487 31.8000
" />
<path d="M20.2487 31.8000
L15.9487 31.8000
" />
<path d="M20.0487 26.3000
L21.2987 26.3000
" />
<path d="M19.1987 26.6000
L20.9987 26.6000
" />
<path d="M19.1987 27.3500
L19.1987 26.6000
" />
<path d="M17.6987 26.6000
L17.6987 27.3500
" />
<path d="M17.6987 27.3500
L14.1987 27.3500
" />
<path d="M14.1987 26.6000
L17.6987 26.6000
" />
<path d="M14.1987 27.3500
L14.1987 26.6000
" />
<path d="M12.6987 26.6000
L12.6987 27.3500
" />
<path d="M12.6987 27.3500
L10.8987 27.3500
" />
<path d="M11.6487 28.8500
L11.6487 31.8000
" />
<path d="M11.6487 31.8000
L15.9487 31.8000
" />
<path d="M10.8987 26.6000
L12.6987 26.6000
" />
<path d="M10.8987 27.3500
L10.8987 26.6000
" />
<path d="M10.8987 28.8500
L11.6487 28.8500
" />
<path d="M10.8887 26.5900
L21.0087 26.5900
" />
<path d="M10.8887 32.5600
L10.8887 26.5900
" />
<path d="M47.6507 22.8980
L46.3207 22.8980
" />
<path d="M47.6507 24.2280
L47.6507 22.8980
" />
<path d="M47.6507 25.4980
L47.6507 33.1780
" />
<path d="M47.6507 25.4980
L44.9907 25.4980
" />
<path d="M47.6507 33.1780
L44.9907 33.1780
" />
<path d="M44.9907 25.4980
L44.9907 33.1780
" />
<path d="M21.2987 37.3000
L21.2987 38.5500
" />
<path d="M21.0087 37.5900
L21.0087 43.5600
" />
<path d="M21.0087 43.5600
L10.8887 43.5600
" />
<path d="M20.9987 37.6000
L20.9987 38.3500
" />
<path d="M20.9987 38.3500
L19.1987 38.3500
" />
<path d="M20.9987 39.8500
L20.2487 39.8500
" />
<path d="M20.2487 39.8500
L20.2487 42.8000
" />
<path d="M20.2487 42.8000
L15.9487 42.8000
" />
<path d="M20.0487 37.3000
L21.2987 37.3000
" />
<path d="M19.1987 37.6000
L20.9987 37.6000
" />
<path d="M19.1987 38.3500
L19.1987 37.6000
" />
<path d="M17.6987 37.6000
L17.6987 38.3500
" />
<path d="M17.6987 38.3500
L14.1987 38.3500
" />
<path d="M14.1987 37.6000
L17.6987 37.6000
" />
<path d="M14.1987 38.3500
L14.1987 37.6000
" />
<path d="M12.6987 37.6000
L12.6987 38.3500
" />
<path d="M12.6987 38.3500
L10.8987 38.3500
" />
<path d="M11.6487 39.8500
L11.6487 42.8000
" />
<path d="M11.6487 42.8000
L15.9487 42.8000
" />
<path d="M10.8987 37.6000
L12.6987 37.6000
" />
<path d="M10.8987 38.3500
L10.8987 37.6000
" />
<path d="M10.8987 39.8500
L11.6487 39.8500
" />
<path d="M10.8887 37.5900
L21.0087 37.5900
" />
<path d="M10.8887 43.5600
L10.8887 37.5900
" />
<path d="M7.5187 14.1800
L6.1887 14.1800
" />
<path d="M7.5187 15.5100
L7.5187 14.1800
" />
<path d="M7.5187 16.7800
L7.5187 29.5400
" />
<path d="M7.5187 16.7800
L4.8587 16.7800
" />
<path d="M7.5187 29.5400
L4.8587 29.5400
" />
<path d="M4.8587 16.7800
L4.8587 29.5400
" />
<path d="M38.2987 50.3000
L38.2987 51.5500
" />
<path d="M38.0087 50.5900
L38.0087 56.5600
" />
<path d="M38.0087 56.5600
L27.8887 56.5600
" />
<path d="M37.9987 50.6000
L37.9987 51.3500
" />
<path d="M37.9987 51.3500
L36.1987 51.3500
" />
<path d="M37.9987 52.8500
L37.2487 52.8500
" />
<path d="M37.2487 52.8500
L37.2487 55.8000
" />
<path d="M37.2487 55.8000
L32.9487 55.8000
" />
<path d="M37.0487 50.3000
L38.2987 50.3000
" />
<path d="M36.1987 50.6000
L37.9987 50.6000
" />
<path d="M36.1987 51.3500
L36.1987 50.6000
" />
<path d="M34.6987 50.6000
L34.6987 51.3500
" />
<path d="M34.6987 51.3500
L31.1987 51.3500
" />
<path d="M31.1987 50.6000
L34.6987 50.6000
" />
<path d="M31.1987 51.3500
L31.1987 50.6000
" />
<path d="M29.6987 50.6000
L29.6987 51.3500
" />
<path d="M29.6987 51.3500
L27.8987 51.3500
" />
<path d="M28.6487 52.8500
L28.6487 55.8000
" />
<path d="M28.6487 55.8000
L32.9487 55.8000
" />
<path d="M27.8987 50.6000
L29.6987 50.6000
" />
<path d="M27.8987 51.3500
L27.8987 50.6000
" />
<path d="M27.8987 52.8500
L28.6487 52.8500
" />
<path d="M27.8887 50.5900
L38.0087 50.5900
" />
<path d="M27.8887 56.5600
L27.8887 50.5900
" />
<path d="M25.2987 50.3000
L25.2987 51.5500
" />
<path d="M25.0087 50.5900
L25.0087 56.5600
" />
<path d="M25.0087 56.5600
L14.8887 56.5600
" />
<path d="M24.9987 50.6000
L24.9987 51.3500
" />
<path d="M24.9987 51.3500
L23.1987 51.3500
" />
<path d="M24.9987 52.8500
L24.2487 52.8500
" />
<path d="M24.2487 52.8500
L24.2487 55.8000
" />
<path d="M24.2487 55.8000
L19.9487 55.8000
" />
<path d="M24.0487 50.3000
L25.2987 50.3000
" />
<path d="M23.1987 50.6000
L24.9987 50.6000
" />
<path d="M23.1987 51.3500
L23.1987 50.6000
" />
<path d="M21.6987 50.6000
L21.6987 51.3500
" />
<path d="M21.6987 51.3500
L18.1987 51.3500
" />
<path d="M18.1987 50.6000
L21.6987 50.6000
" />
<path d="M18.1987 51.3500
L18.1987 50.6000
" />
<path d="M16.6987 50.6000
L16.6987 51.3500
" />
<path d="M16.6987 51.3500
L14.8987 51.3500
" />
<path d="M15.6487 52.8500
L15.6487 55.8000
" />
<path d="M15.6487 55.8000
L19.9487 55.8000
" />
<path d="M14.8987 50.6000
L16.6987 50.6000
" />
<path d="M14.8987 51.3500
L14.8987 50.6000
" />
<path d="M14.8987 52.8500
L15.6487 52.8500
" />
<path d="M14.8887 50.5900
L25.0087 50.5900
" />
<path d="M14.8887 56.5600
L14.8887 50.5900
" />
<path d="M20.9887 0.2400
L20.9887 7.8600
" />
<path d="M20.9887 7.8600
L10.8287 7.8600
" />
<path d="M10.8287 0.2400
L20.9887 0.2400
" />
<path d="M10.8287 6.5900
L20.9887 6.5900
" />
<path d="M10.8287 7.8600
L10.8287 0.2400
" />
<path d="M48.1987 59.5000
L46.9487 59.5000
" />
<path d="M47.9087 59.2100
L41.9387 59.2100
" />
<path d="M41.9387 59.2100
L41.9387 49.0900
" />
<path d="M47.8987 59.2000
L47.1487 59.2000
" />
<path d="M47.1487 59.2000
L47.1487 57.4000
" />
<path d="M45.6487 59.2000
L45.6487 58.4500
" />
<path d="M45.6487 58.4500
L42.6987 58.4500
" />
<path d="M42.6987 58.4500
L42.6987 54.1500
" />
<path d="M48.1987 58.2500
L48.1987 59.5000
" />
<path d="M47.8987 57.4000
L47.8987 59.2000
" />
<path d="M47.1487 57.4000
L47.8987 57.4000
" />
<path d="M47.8987 55.9000
L47.1487 55.9000
" />
<path d="M47.1487 55.9000
L47.1487 52.4000
" />
<path d="M47.8987 52.4000
L47.8987 55.9000
" />
<path d="M47.1487 52.4000
L47.8987 52.4000
" />
<path d="M47.8987 50.9000
L47.1487 50.9000
" />
<path d="M47.1487 50.9000
L47.1487 49.1000
" />
<path d="M45.6487 49.8500
L42.6987 49.8500
" />
<path d="M42.6987 49.8500
L42.6987 54.1500
" />
<path d="M47.8987 49.1000
L47.8987 50.9000
" />
<path d="M47.1487 49.1000
L47.8987 49.1000
" />
<path d="M45.6487 49.1000
L45.6487 49.8500
" />
<path d="M47.9087 49.0900
L47.9087 59.2100
" />
<path d="M41.9387 49.0900
L47.9087 49.0900
" />
<path d="M47.5237 36.3600
L46.1937 36.3600
" />
<path d="M47.5237 37.6900
L47.5237 36.3600
" />
<path d="M47.5237 38.9600
L47.5237 46.6400
" />
<path d="M47.5237 38.9600
L44.8637 38.9600
" />
<path d="M47.5237 46.6400
L44.8637 46.6400
" />
<path d="M44.8637 38.9600
L44.8637 46.6400
" />
<path d="M21.2987 15.3000
L21.2987 16.5500
" />
<path d="M21.0087 15.5900
L21.0087 21.5600
" />
<path d="M21.0087 21.5600
L10.8887 21.5600
" />
<path d="M20.9987 15.6000
L20.9987 16.3500
" />
<path d="M20.9987 16.3500
L19.1987 16.3500
" />
<path d="M20.9987 17.8500
L20.2487 17.8500
" />
<path d="M20.2487 17.8500
L20.2487 20.8000
" />
<path d="M20.2487 20.8000
L15.9487 20.8000
" />
<path d="M20.0487 15.3000
L21.2987 15.3000
" />
<path d="M19.1987 15.6000
L20.9987 15.6000
" />
<path d="M19.1987 16.3500
L19.1987 15.6000
" />
<path d="M17.6987 15.6000
L17.6987 16.3500
" />
<path d="M17.6987 16.3500
L14.1987 16.3500
" />
<path d="M14.1987 15.6000
L17.6987 15.6000
" />
<path d="M14.1987 16.3500
L14.1987 15.6000
" />
<path d="M12.6987 15.6000
L12.6987 16.3500
" />
<path d="M12.6987 16.3500
L10.8987 16.3500
" />
<path d="M11.6487 17.8500
L11.6487 20.8000
" />
<path d="M11.6487 20.8000
L15.9487 20.8000
" />
<path d="M10.8987 15.6000
L12.6987 15.6000
" />
<path d="M10.8987 16.3500
L10.8987 15.6000
" />
<path d="M10.8987 17.8500
L11.6487 17.8500
" />
<path d="M10.8887 15.5900
L21.0087 15.5900
" />
<path d="M10.8887 21.5600
L10.8887 15.5900
" />
<path d="M25.2987 60.3000
L25.2987 61.5500
" />
<path d="M25.0087 60.5900
L25.0087 66.5600
" />
<path d="M25.0087 66.5600
L14.8887 66.5600
" />
<path d="M24.9987 60.6000
L24.9987 61.3500
" />
<path d="M24.9987 61.3500
L23.1987 61.3500
" />
<path d="M24.9987 62.8500
L24.2487 62.8500
" />
<path d="M24.2487 62.8500
L24.2487 65.8000
" />
<path d="M24.2487 65.8000
L19.9487 65.8000
" />
<path d="M24.0487 60.3000
L25.2987 60.3000
" />
<path d="M23.1987 60.6000
L24.9987 60.6000
" />
<path d="M23.1987 61.3500
L23.1987 60.6000
" />
<path d="M21.6987 60.6000
L21.6987 61.3500
" />
<path d="M21.6987 61.3500
L18.1987 61.3500
" />
<path d="M18.1987 60.6000
L21.6987 60.6000
" />
<path d="M18.1987 61.3500
L18.1987 60.6000
" />
<path d="M16.6987 60.6000
L16.6987 61.3500
" />
<path d="M16.6987 61.3500
L14.8987 61.3500
" />
<path d="M15.6487 62.8500
L15.6487 65.8000
" />
<path d="M15.6487 65.8000
L19.9487 65.8000
" />
<path d="M14.8987 60.6000
L16.6987 60.6000
" />
<path d="M14.8987 61.3500
L14.8987 60.6000
" />
<path d="M14.8987 62.8500
L15.6487 62.8500
" />
<path d="M14.8887 60.5900
L25.0087 60.5900
" />
<path d="M14.8887 66.5600
L14.8887 60.5900
" />
<path d="M38.2987 60.3000
L38.2987 61.5500
" />
<path d="M38.0087 60.5900
L38.0087 66.5600
" />
<path d="M38.0087 66.5600
L27.8887 66.5600
" />
<path d="M37.9987 60.6000
L37.9987 61.3500
" />
<path d="M37.9987 61.3500
L36.1987 61.3500
" />
<path d="M37.9987 62.8500
L37.2487 62.8500
" />
<path d="M37.2487 62.8500
L37.2487 65.8000
" />
<path d="M37.2487 65.8000
L32.9487 65.8000
" />
<path d="M37.0487 60.3000
L38.2987 60.3000
" />
<path d="M36.1987 60.6000
L37.9987 60.6000
" />
<path d="M36.1987 61.3500
L36.1987 60.6000
" />
<path d="M34.6987 60.6000
L34.6987 61.3500
" />
<path d="M34.6987 61.3500
L31.1987 61.3500
" />
<path d="M31.1987 60.6000
L34.6987 60.6000
" />
<path d="M31.1987 61.3500
L31.1987 60.6000
" />
<path d="M29.6987 60.6000
L29.6987 61.3500
" />
<path d="M29.6987 61.3500
L27.8987 61.3500
" />
<path d="M28.6487 62.8500
L28.6487 65.8000
" />
<path d="M28.6487 65.8000
L32.9487 65.8000
" />
<path d="M27.8987 60.6000
L29.6987 60.6000
" />
<path d="M27.8987 61.3500
L27.8987 60.6000
" />
<path d="M27.8987 62.8500
L28.6487 62.8500
" />
<path d="M27.8887 60.5900
L38.0087 60.5900
" />
<path d="M27.8887 66.5600
L27.8887 60.5900
" />
<path d="M7.5187 34.1800
L6.1887 34.1800
" />
<path d="M7.5187 35.5100
L7.5187 34.1800
" />
<path d="M7.5187 36.7800
L7.5187 44.4600
" />
<path d="M7.5187 36.7800
L4.8587 36.7800
" />
<path d="M7.5187 44.4600
L4.8587 44.4600
" />
<path d="M4.8587 36.7800
L4.8587 44.4600
" />
<path d="M22.8087 46.6100
L22.8087 43.9400
" />
<path d="M22.8087 41.4000
L22.8087 3.1700
" />
<path d="M22.8087 3.1700
L27.8887 3.1700
" />
<path d="M25.4787 43.9400
L22.8087 43.9400
" />
<path d="M25.4787 41.4000
L22.8087 41.4000
" />
<path d="M25.4787 41.4000
L25.4787 43.9400
" />
<path d="M25.4787 41.4000
L25.4787 5.8400
" />
<path d="M25.4787 5.8400
L22.8087 5.8400
" />
<path d="M27.8887 11.0500
L35.7687 11.0500
" />
<path d="M27.8887 0.6300
L27.8887 11.0500
" />
<path d="M35.7687 11.0500
L35.7687 0.6300
" />
<path d="M35.7687 0.6300
L27.8887 0.6300
" />
<path d="M38.1787 43.9400
L38.1787 5.8400
" />
<path d="M38.1787 43.9400
L40.8487 43.9400
" />
<path d="M38.1787 5.8400
L40.8487 5.8400
" />
<path d="M40.8487 46.6100
L22.8087 46.6100
" />
<path d="M40.8487 3.1700
L35.7687 3.1700
" />
<path d="M40.8487 3.1700
L40.8487 46.6100
" />
<g >
</g>
<g >
</g>
<g >
</g>
<g >
</g>
<g >
</g>
<g >
</g>
<g >
</g>
<g >
</g>
<g >
</g>
<g >
</g>
<g >
</g>
<g >
</g>
<g >
</g>
<g >
</g>
<g >
</g>
<g >
</g>
<g >
</g>
<g >
</g>
<g >
</g>
<g >
</g>
<g >
</g>
<g >
</g>
</g>
<g style="fill:#000000; fill-opacity:0.0; 
stroke:#000000; stroke-width:0.1200; stroke-opacity:1; 
stroke-linecap:round; stroke-linejoin:round;">
</g>
<g style="fill:#000000; fill-opacity:0.0; 
stroke:#000000; stroke-width:0.1000; stroke-opacity:1; 
stroke-linecap:round; stroke-linejoin:round;">
<path d="M46.4487 70.0500
L6.4487 70.0500
" />
<path d="M6.4487 0.0500 A5.0000 5.0000 0.0 0 0 1.4487 5.0500" />
<path d="M46.4487 70.0500 A5.0000 5.0000 0.0 0 0 51.4487 65.0500" />
<path d="M46.4487 0.0500
L6.4487 0.0500
" />
<path d="M1.4487 65.0500
L1.4487 5.0500
" />
<path d="M1.4487 65.0500 A5.0000 5.0000 0.0 0 0 6.4487 70.0500" />
<path d="M51.4487 5.0500
L51.4487 65.0500
" />
<path d="M51.4487 5.0500 A5.0000 5.0000 0.0 0 0 46.4487 0.0500" />
<g >
</g>
<g >
</g>
<g >
</g>
<g >
</g>
<g >
</g>
<g >
</g>
<g >
</g>
<g >
</g>
<g >
</g>
<g >
</g>
<g >
</g>
<g >
</g>
<g >
</g>
<g >
</g>
<g >
</g>
<g >
</g>
<g >
</g>
<g >
</g>
<g >
</g>
<g >
</g>
<g >
</g>
<g >
</g>
</g> 
</svg>
